HIERARCHY
ROOT hip
{
  OFFSET 0 0 0
  CHANNELS 6 Xposition Yposition Zposition Zrotation Yrotation Xrotation
  JOINT abdomen
  {
    OFFSET 0 20.6881 -0.73152
    CHANNELS 3 Zrotation Xrotation Yrotation
    JOINT chest
    {
      OFFSET 0 11.7043 -0.48768
      CHANNELS 3 Zrotation Xrotation Yrotation
      JOINT neck
      {
        OFFSET 0 22.1894 -2.19456
        CHANNELS 3 Zrotation Xrotation Yrotation
        JOINT head
        {
          OFFSET -0.24384 7.07133 1.2192
          CHANNELS 3 Zrotation Xrotation Yrotation
          JOINT leftEye
          {
            OFFSET 4.14528 8.04674 8.04672
            CHANNELS 3 Zrotation Xrotation Yrotation
            End Site
            {
              OFFSET 1 0 0
            }
          }
          JOINT rightEye
          {
            OFFSET -3.6576 8.04674 8.04672
            CHANNELS 3 Zrotation Xrotation Yrotation
            End Site
            {
              OFFSET 1 0 0
            }
          }
        }
      }
      JOINT rCollar
      {
        OFFSET -2.68224 19.2634 -4.8768
        CHANNELS 3 Zrotation Xrotation Yrotation
        JOINT rShldr
        {
          OFFSET -8.77824 -1.95073 1.46304
          CHANNELS 3 Zrotation Xrotation Yrotation
          JOINT rForeArm
          {
            OFFSET -28.1742 -1.7115 0.48768
            CHANNELS 3 Zrotation Xrotation Yrotation
            JOINT rHand
            {
              OFFSET -22.5879 0.773209 7.07136
              CHANNELS 3 Zrotation Xrotation Yrotation
              JOINT rThumb1
              {
                OFFSET -1.2192 -0.487915 3.41376
                CHANNELS 3 Zrotation Xrotation Yrotation
                JOINT rThumb2
                {
                  OFFSET -3.37035 -0.52449 3.41376
                  CHANNELS 3 Zrotation Xrotation Yrotation
                  End Site
                  {
                    OFFSET -1.78271 -1.18214 1.43049
                  }
                }
              }
              JOINT rIndex1
              {
                OFFSET -7.75947 0.938293 5.60832
                CHANNELS 3 Zrotation Xrotation Yrotation
                JOINT rIndex2
                {
                  OFFSET -2.54057 -0.884171 1.56538
                  CHANNELS 3 Zrotation Xrotation Yrotation
                  End Site
                  {
                    OFFSET -1.62519 -0.234802 1.16502
                  }
                }
              }
              JOINT rMid1
              {
                OFFSET -8.24714 1.18213 3.41376
                CHANNELS 3 Zrotation Xrotation Yrotation
                JOINT rMid2
                {
                  OFFSET -3.10165 -0.590103 1.0647
                  CHANNELS 3 Zrotation Xrotation Yrotation
                  End Site
                  {
                    OFFSET -2.48547 -0.328903 0.83742
                  }
                }
              }
              JOINT rRing1
              {
                OFFSET -8.82822 0.546677 1.51678
                CHANNELS 3 Zrotation Xrotation Yrotation
                JOINT rRing2
                {
                  OFFSET -2.60934 -0.819778 -0.0198488
                  CHANNELS 3 Zrotation Xrotation Yrotation
                  End Site
                  {
                    OFFSET -2.33842 -0.294052 0.168128
                  }
                }
              }
              JOINT rPinky1
              {
                OFFSET -8.27202 -0.0477905 -0.4584
                CHANNELS 3 Zrotation Xrotation Yrotation
                JOINT rPinky2
                {
                  OFFSET -1.82734 -0.647385 -0.700984
                  CHANNELS 3 Zrotation Xrotation Yrotation
                  End Site
                  {
                    OFFSET -1.69225 -0.51767 -0.607171
                  }
                }
              }
            }
          }
        }
      }
      JOINT lCollar
      {
        OFFSET 2.68224 19.2634 -4.8768
        CHANNELS 3 Zrotation Xrotation Yrotation
        JOINT lShldr
        {
          OFFSET 8.77824 -1.95073 1.46304
          CHANNELS 3 Zrotation Xrotation Yrotation
          JOINT lForeArm
          {
            OFFSET 28.1742 -1.7115 0.48768
            CHANNELS 3 Zrotation Xrotation Yrotation
            JOINT lHand
            {
              OFFSET 22.5879 0.773209 7.07136
              CHANNELS 3 Zrotation Xrotation Yrotation
              JOINT lThumb1
              {
                OFFSET 1.2192 -0.487915 3.41376
                CHANNELS 3 Zrotation Xrotation Yrotation
                JOINT lThumb2
                {
                  OFFSET 3.37035 -0.52449 3.41376
                  CHANNELS 3 Zrotation Xrotation Yrotation
                  End Site
                  {
                    OFFSET 1.78271 -1.18214 1.43049
                  }
                }
              }
              JOINT lIndex1
              {
                OFFSET 7.75947 0.938293 5.60832
                CHANNELS 3 Zrotation Xrotation Yrotation
                JOINT lIndex2
                {
                  OFFSET 2.54057 -0.884171 1.56538
                  CHANNELS 3 Zrotation Xrotation Yrotation
                  End Site
                  {
                    OFFSET 1.62519 -0.234802 1.16502
                  }
                }
              }
              JOINT lMid1
              {
                OFFSET 8.24714 1.18213 3.41376
                CHANNELS 3 Zrotation Xrotation Yrotation
                JOINT lMid2
                {
                  OFFSET 3.10165 -0.590103 1.0647
                  CHANNELS 3 Zrotation Xrotation Yrotation
                  End Site
                  {
                    OFFSET 2.48547 -0.328903 0.83742
                  }
                }
              }
              JOINT lRing1
              {
                OFFSET 8.82822 0.546677 1.51678
                CHANNELS 3 Zrotation Xrotation Yrotation
                JOINT lRing2
                {
                  OFFSET 2.60934 -0.819778 -0.0198488
                  CHANNELS 3 Zrotation Xrotation Yrotation
                  End Site
                  {
                    OFFSET 2.33842 -0.294052 0.168128
                  }
                }
              }
              JOINT lPinky1
              {
                OFFSET 8.27202 -0.0477905 -0.4584
                CHANNELS 3 Zrotation Xrotation Yrotation
                JOINT lPinky2
                {
                  OFFSET 1.82734 -0.647385 -0.700984
                  CHANNELS 3 Zrotation Xrotation Yrotation
                  End Site
                  {
                    OFFSET 1.69225 -0.51767 -0.607171
                  }
                }
              }
            }
          }
        }
      }
    }
  }
  JOINT rButtock
  {
    OFFSET -8.77824 4.35084 1.2192
    CHANNELS 3 Zrotation Xrotation Yrotation
    JOINT rThigh
    {
      OFFSET 0 -1.70687 -2.19456
      CHANNELS 3 Zrotation Xrotation Yrotation
      JOINT rShin
      {
        OFFSET 0 -36.8199 0.73152
        CHANNELS 3 Zrotation Xrotation Yrotation
        JOINT rFoot
        {
          OFFSET 0.73152 -45.1104 -5.12064
          CHANNELS 3 Zrotation Xrotation Yrotation
          End Site
          {
            OFFSET -1.1221 -3.69964 12.103
          }
        }
      }
    }
  }
  JOINT lButtock
  {
    OFFSET 8.77824 4.35084 1.2192
    CHANNELS 3 Zrotation Xrotation Yrotation
    JOINT lThigh
    {
      OFFSET 0 -1.70687 -2.19456
      CHANNELS 3 Zrotation Xrotation Yrotation
      JOINT lShin
      {
        OFFSET 0 -36.8199 0.73152
        CHANNELS 3 Zrotation Xrotation Yrotation
        JOINT lFoot
        {
          OFFSET -0.73152 -45.1104 -5.12064
          CHANNELS 3 Zrotation Xrotation Yrotation
          End Site
          {
            OFFSET 1.1221 -3.69964 12.103
          }
        }
      }
    }
  }
}
MOTION
Frames:	8
Frame Time:	0.00833333
46.797 87.2731 -218.975 -3.4444 -49.3181 7.3588 6.45138 2.07239 1.94388 0.430011 -7.63751 0.722866 4.32119 12.1493 11.6517 -5.24482 -24.1527 21.6937 -0.0 0.0 0.0 -0.0 0.0 0.0 6.92438e-14 1.25069e-13 -7.10031e-13 81.1053 86.9301 -10.2496 -26.8099 -44.5075 92.4573 -3.36294 -45.0572 -8.09565 -2.31458e-09 -8.50643e-08 4.85963e-10 -4.00113e-09 -1.4667e-07 7.3629e-10 -2.31457e-09 -8.50643e-08 4.85951e-10 7.73091 5.47488 0.417314 -2.31458e-09 -8.50643e-08 4.85959e-10 2.90554 0.965183 0.102902 -2.31457e-09 -8.50643e-08 4.85967e-10 10.2786 0.731801 0.0259123 -2.31458e-09 -8.50643e-08 4.85971e-10 2.22167 -0.733487 -0.20892 6.92073e-14 1.25073e-13 -7.10186e-13 -90.0871 83.5545 22.6052 26.3276 -45.6052 -94.7223 0.00629999 -0.924297 0.130337 -2.26036e-09 8.68814e-10 -3.73669e-10 -3.89017e-09 1.50871e-09 -6.52677e-10 -2.26037e-09 8.68814e-10 -3.73659e-10 -7.73091 5.47488 -0.417314 -2.26036e-09 8.68814e-10 -3.73662e-10 -2.90554 0.965183 -0.102902 -2.26037e-09 8.68814e-10 -3.73665e-10 -10.2786 0.731801 -0.0259123 -2.26036e-09 8.68814e-10 -3.73675e-10 -2.22167 -0.733487 0.20892 -2.03217e-16 0.0 -3.88251e-19 9.41165 -18.7866 0.0182453 -0.167467 36.3698 0.727632 -5.58998 -5.3287 -27.5345 2.03217e-16 0.0 3.88251e-19 2.19709 -18.4429 1.39133 0.211223 33.3563 -0.837318 7.21575 -16.3441 17.5808
46.9671 87.2579 -218.836 -3.4698 -48.3878 7.3869 6.48184 2.03436 1.83964 0.498731 -7.65099 0.695671 4.17204 12.0791 11.4838 -5.14473 -24.1821 21.3905 -0.0 0.0 0.0 -0.0 0.0 0.0 1.03391e-13 1.85663e-13 -3.72026e-13 80.0021 87.0209 -9.14404 -26.8359 -44.4407 92.3249 -3.39048 -45.1952 -8.13476 -8.09323e-10 -2.16553e-08 2.34531e-10 -1.39975e-09 -3.63957e-08 3.65645e-10 -8.09322e-10 -2.16553e-08 2.34518e-10 7.73091 5.47488 0.417314 -8.09328e-10 -2.16553e-08 2.34528e-10 2.90554 0.965183 0.102902 -8.09321e-10 -2.16553e-08 2.34536e-10 10.2786 0.731801 0.0259123 -8.09325e-10 -2.16553e-08 2.3454e-10 2.22167 -0.733487 -0.20892 1.03352e-13 1.85667e-13 -3.72175e-13 -91.9958 83.7829 24.4659 26.3157 -45.6357 -94.778 0.00454634 -1.92488 0.270626 -1.11032e-09 3.14522e-10 4.2227e-10 -1.91187e-09 5.46069e-10 7.25912e-10 -1.11032e-09 3.14522e-10 4.22279e-10 -7.73091 5.47488 -0.417314 -1.11032e-09 3.14522e-10 4.22276e-10 -2.90554 0.965183 -0.102902 -1.11032e-09 3.14522e-10 4.22273e-10 -10.2786 0.731801 -0.0259123 -1.11031e-09 3.14522e-10 4.22263e-10 -2.22167 -0.733487 0.20892 -2.03217e-16 0.0 -3.88251e-19 9.33867 -18.7807 -0.153125 -0.169498 36.4918 0.740271 -5.87106 -5.63341 -27.9684 2.03217e-16 0.0 3.88251e-19 1.85353 -18.2059 0.635059 0.204323 32.8428 -0.829799 7.30207 -16.606 17.6563
47.1654 87.2106 -218.748 -3.4177 -47.4053 7.2874 6.48782 1.98525 1.73087 0.542948 -7.65555 0.665255 4.13539 12.0148 11.2964 -5.18362 -24.1793 21.0115 -0.0 0.0 0.0 -0.0 0.0 0.0 8.2188e-14 1.49691e-13 -3.22864e-13 79.6504 87.0534 -8.78543 -26.8343 -44.4442 92.3328 -3.4605 -45.5407 -8.23362 -5.45145e-10 -5.29111e-10 1.783e-10 -9.43061e-10 4.4145e-10 2.80627e-10 -5.45145e-10 -5.29129e-10 1.78287e-10 7.73091 5.47488 0.417314 -5.45151e-10 -5.29109e-10 1.78297e-10 2.90554 0.965183 0.102902 -5.45142e-10 -5.29128e-10 1.78304e-10 10.2786 0.731801 0.0259123 -5.45147e-10 -5.29137e-10 1.7831e-10 2.22167 -0.733487 -0.20892 8.21242e-14 1.49694e-13 -3.23017e-13 -96.8188 84.3896 29.2679 26.2201 -45.849 -95.2047 0.00576973 -3.56589 0.50091 -7.68058e-10 2.73957e-10 4.96765e-10 -1.32166e-09 4.74777e-10 8.5398e-10 -7.6806e-10 2.73957e-10 4.96773e-10 -7.73091 5.47488 -0.417314 -7.68057e-10 2.73957e-10 4.96772e-10 -2.90554 0.965183 -0.102902 -7.68065e-10 2.73957e-10 4.96769e-10 -10.2786 0.731801 -0.0259123 -7.68055e-10 2.73957e-10 4.96761e-10 -2.22167 -0.733487 0.20892 -2.03217e-16 0.0 -3.88251e-19 9.23823 -18.7827 -0.347409 -0.171704 36.6147 0.752055 -6.10857 -5.8687 -28.3395 2.03217e-16 0.0 3.88251e-19 1.4953 -17.9856 -0.144999 0.197767 32.3429 -0.822989 7.41428 -16.8128 17.8228
47.3561 87.1675 -218.598 -3.3463 -46.5121 7.1709 6.47698 1.9325 1.62222 0.5731 -7.65862 0.633757 4.1659 11.9566 11.0962 -5.31007 -24.1608 20.584 -0.0 0.0 0.0 -0.0 0.0 0.0 2.67247e-14 5.05532e-14 -4.22747e-13 79.8922 87.0652 -9.02058 -26.8159 -44.49 92.4253 -3.56106 -46.0227 -8.37415 -9.32407e-10 -6.2928e-10 2.04325e-10 -1.61147e-09 4.21366e-10 3.10925e-10 -9.32406e-10 -6.29287e-10 2.04312e-10 7.73091 5.47488 0.417314 -9.32411e-10 -6.29287e-10 2.04323e-10 2.90554 0.965183 0.102902 -9.32403e-10 -6.29294e-10 2.04328e-10 10.2786 0.731801 0.0259123 -9.32409e-10 -6.29305e-10 2.04335e-10 2.22167 -0.733487 -0.20892 2.66228e-14 5.05528e-14 -4.22911e-13 -105.555 85.1899 37.9931 26.06 -46.1779 -95.8901 0.0256624 -5.73641 0.807401 -8.27844e-10 4.99779e-10 2.00749e-10 -1.42221e-09 8.65556e-10 3.39729e-10 -8.27845e-10 4.9978e-10 2.00754e-10 -7.73091 5.47488 -0.417314 -8.27843e-10 4.99781e-10 2.00756e-10 -2.90554 0.965183 -0.102902 -8.27853e-10 4.99781e-10 2.00753e-10 -10.2786 0.731801 -0.0259123 -8.27842e-10 4.99781e-10 2.00748e-10 -2.22167 -0.733487 0.20892 -2.03217e-16 0.0 -3.88251e-19 9.11859 -18.7949 -0.550851 -0.174172 36.7459 0.763803 -6.32803 -6.07765 -28.6665 2.03217e-16 0.0 3.88251e-19 1.11064 -17.7744 -1.00966 0.191368 31.8423 -0.816494 7.54624 -17.0128 18.035
47.5623 87.1495 -218.423 -3.2446 -45.6213 7.0525 6.46495 1.88629 1.52842 0.591904 -7.66585 0.605936 4.207 11.8935 10.8868 -5.44609 -24.1353 20.1356 -0.0 0.0 0.0 -0.0 0.0 0.0 -3.54236e-14 -6.63077e-14 -5.63278e-13 80.5688 87.0496 -9.67436 -26.7978 -44.5351 92.5162 -3.65664 -46.4661 -8.50618 -1.58065e-09 -8.83456e-09 2.26438e-10 -2.72922e-09 -1.3688e-08 3.23737e-10 -1.58065e-09 -8.83455e-09 2.26426e-10 7.73091 5.47488 0.417314 -1.58065e-09 -8.83457e-09 2.26438e-10 2.90554 0.965183 0.102902 -1.58065e-09 -8.83457e-09 2.26441e-10 10.2786 0.731801 0.0259123 -1.58065e-09 -8.83458e-09 2.26448e-10 2.22167 -0.733487 -0.20892 -3.55607e-14 -6.63108e-14 -5.63459e-13 -117.316 85.8446 49.7452 25.8866 -46.5025 -96.6005 0.0677002 -7.91962 1.11911 -1.08916e-09 8.49972e-10 -1.73759e-10 -1.87021e-09 1.47184e-09 -3.11079e-10 -1.08916e-09 8.49974e-10 -1.73757e-10 -7.73091 5.47488 -0.417314 -1.08916e-09 8.49975e-10 -1.73752e-10 -2.90554 0.965183 -0.102902 -1.08917e-09 8.49976e-10 -1.73755e-10 -10.2786 0.731801 -0.0259123 -1.08916e-09 8.49975e-10 -1.73758e-10 -2.22167 -0.733487 0.20892 -2.03217e-16 0.0 -3.88251e-19 8.99527 -18.8077 -0.750138 -0.176663 36.8816 0.775923 -6.55114 -6.29085 -28.9818 2.03217e-16 0.0 3.88251e-19 0.740549 -17.5752 -1.85594 0.185559 31.37 -0.809596 7.6489 -17.1847 18.1939
47.7711 87.1381 -218.266 -3.1511 -44.7771 6.9318 6.46743 1.85682 1.46419 0.602072 -7.68289 0.586549 4.20195 11.8149 10.6721 -5.5141 -24.1115 19.6941 -0.0 0.0 0.0 -0.0 0.0 0.0 -7.6682e-14 -1.55448e-13 -6.36061e-13 81.496 86.9998 -10.5461 -26.7975 -44.5366 92.5183 -3.70743 -46.6958 -8.57573 -2.09942e-09 -1.20237e-08 1.58474e-10 -3.62055e-09 -1.91185e-08 1.8626e-10 -2.09942e-09 -1.20236e-08 1.58462e-10 7.73091 5.47488 0.417314 -2.09942e-09 -1.20237e-08 1.58474e-10 2.90554 0.965183 0.102902 -2.09941e-09 -1.20237e-08 1.58476e-10 10.2786 0.731801 0.0259123 -2.09942e-09 -1.20237e-08 1.58484e-10 2.22167 -0.733487 -0.20892 -7.68345e-14 -1.55452e-13 -6.3626e-13 -127.593 86.1712 60.0105 25.7649 -46.7135 -97.0818 0.114363 -9.59916 1.36197 -1.35149e-09 1.18252e-09 -3.34741e-10 -2.32235e-09 2.04708e-09 -5.92684e-10 -1.35149e-09 1.18252e-09 -3.34741e-10 -7.73091 5.47488 -0.417314 -1.35149e-09 1.18252e-09 -3.34734e-10 -2.90554 0.965183 -0.102902 -1.35151e-09 1.18252e-09 -3.34737e-10 -10.2786 0.731801 -0.0259123 -1.35149e-09 1.18252e-09 -3.34737e-10 -2.22167 -0.733487 0.20892 -2.03217e-16 0.0 -3.88251e-19 8.88393 -18.8116 -0.931911 -0.178941 37.0181 0.788819 -6.80087 -6.53815 -29.3182 2.03217e-16 0.0 3.88251e-19 0.424342 -17.3928 -2.58133 0.180782 30.9551 -0.801571 7.67176 -17.3077 18.2
47.9928 87.1028 -218.122 -3.022 -43.9741 6.8254 6.50418 1.85596 1.42305 0.586451 -7.71674 0.572925 4.13211 11.7199 10.4502 -5.48852 -24.1099 19.2624 -0.0 0.0 0.0 -0.0 0.0 0.0 -8.87478e-14 -2.13087e-13 -5.81574e-13 82.6298 86.9068 -11.5597 -26.8279 -44.463 92.367 -3.68403 -46.5895 -8.5436 -2.43244e-09 -6.97348e-09 -9.4597e-11 -4.18521e-09 -1.02894e-08 -2.62789e-10 -2.43244e-09 -6.97347e-09 -9.46107e-11 7.73091 5.47488 0.417314 -2.43244e-09 -6.9735e-09 -9.45975e-11 2.90554 0.965183 0.102902 -2.43244e-09 -6.97349e-09 -9.45963e-11 10.2786 0.731801 0.0259123 -2.43245e-09 -6.9735e-09 -9.4588e-11 2.22167 -0.733487 -0.20892 -8.88868e-14 -2.1309e-13 -5.81801e-13 -131.984 86.2791 64.4014 25.7277 -46.775 -97.2264 0.144701 -10.5879 1.50604 -1.59515e-09 1.47113e-09 -1.3365e-10 -2.74659e-09 2.5455e-09 -2.47775e-10 -1.59515e-09 1.47113e-09 -1.33651e-10 -7.73091 5.47488 -0.417314 -1.59515e-09 1.47113e-09 -1.33645e-10 -2.90554 0.965183 -0.102902 -1.59516e-09 1.47113e-09 -1.33647e-10 -10.2786 0.731801 -0.0259123 -1.59515e-09 1.47113e-09 -1.33647e-10 -2.22167 -0.733487 0.20892 -2.03217e-16 0.0 -3.88251e-19 8.80918 -18.8045 -1.07756 -0.180773 37.1527 0.803232 -7.10497 -6.84453 -29.7251 2.03217e-16 0.0 3.88251e-19 0.185551 -17.2363 -3.14568 0.177378 30.6121 -0.791423 7.56553 -17.3809 17.9454
48.2098 87.0652 -217.961 -2.9067 -43.191 6.7051 6.56176 1.87523 1.4006 0.549548 -7.76256 0.563841 4.02861 11.6135 10.2201 -5.41272 -24.1197 18.8271 -0.0 0.0 0.0 -0.0 0.0 0.0 -8.66443e-14 -2.60681e-13 -4.67834e-13 83.9864 86.7756 -12.7496 -26.8759 -44.3429 92.124 -3.61357 -46.2657 -8.44653 -2.77201e-09 -5.90077e-10 -4.62803e-10 -4.75694e-09 8.19949e-10 -9.10628e-10 -2.772e-09 -5.90067e-10 -4.62818e-10 7.73091 5.47488 0.417314 -2.77201e-09 -5.9008e-10 -4.62804e-10 2.90554 0.965183 0.102902 -2.772e-09 -5.90086e-10 -4.62803e-10 10.2786 0.731801 0.0259123 -2.77202e-09 -5.90086e-10 -4.62795e-10 2.22167 -0.733487 -0.20892 -8.67514e-14 -2.60682e-13 -4.68098e-13 -132.272 86.3181 64.6997 25.7409 -46.752 -97.1748 0.160601 -11.178 1.59204 -1.91582e-09 1.78768e-09 2.50212e-10 -3.30619e-09 3.09192e-09 4.13097e-10 -1.91582e-09 1.78768e-09 2.5021e-10 -7.73091 5.47488 -0.417314 -1.91582e-09 1.78768e-09 2.50215e-10 -2.90554 0.965183 -0.102902 -1.91583e-09 1.78768e-09 2.50213e-10 -10.2786 0.731801 -0.0259123 -1.91582e-09 1.78768e-09 2.50213e-10 -2.22167 -0.733487 0.20892 -2.03217e-16 0.0 -3.88251e-19 8.75594 -18.7915 -1.19921 -0.182359 37.2881 0.818745 -7.4462 -7.18696 -30.1723 2.03217e-16 0.0 3.88251e-19 -0.00401639 -17.1022 -3.60881 0.17504 30.3233 -0.779777 7.36821 -17.4134 17.51
